<?xml version="1.0" standalone="no"?>
<!DOCTYPE svg PUBLIC "-//W3C//DTD SVG 20010904//EN"
 "http://www.w3.org/TR/2001/REC-SVG-20010904/DTD/svg10.dtd">
<svg version="1.0" xmlns="http://www.w3.org/2000/svg"
 width="320.000000pt" height="320.000000pt" viewBox="0 0 320.000000 320.000000"
 preserveAspectRatio="xMidYMid meet">
<metadata>
Created by potrace 1.14, written by Peter Selinger 2001-2017
</metadata>
<g transform="translate(0.000000,320.000000) scale(0.100000,-0.100000)"
fill="#000000" stroke="none">
<path d="M1547 3124 c-1 -1 -40 -4 -87 -7 -47 -4 -119 -13 -160 -22 -41 -9
-84 -18 -96 -21 -56 -11 -186 -59 -277 -103 -407 -194 -708 -562 -821 -1002
-14 -53 -28 -121 -31 -150 -4 -30 -8 -70 -11 -89 -8 -77 -2 -298 11 -360 2
-13 7 -42 10 -65 26 -183 161 -487 281 -635 81 -99 155 -178 212 -226 37 -31
77 -65 90 -75 12 -10 26 -19 31 -19 5 0 11 -4 13 -9 4 -11 185 -121 199 -121
5 0 20 -7 33 -15 28 -18 235 -93 279 -100 17 -3 39 -8 47 -10 138 -39 464 -40
635 -2 11 3 40 10 65 17 25 7 52 13 61 15 53 10 243 95 331 148 130 78 211
141 307 237 131 129 230 271 306 433 40 86 91 230 101 287 3 14 9 41 14 60 18
69 25 167 24 330 -2 148 -9 211 -38 340 -7 29 -49 160 -68 210 -117 304 -392
608 -702 775 -59 32 -222 100 -266 111 -126 32 -179 44 -204 48 -66 11 -283
26 -289 20z m134 -568 c1 -6 3 -22 5 -36 4 -21 4 -547 2 -1000 -1 -74 2 -205
6 -290 11 -240 18 -315 42 -427 22 -104 7 -175 -39 -187 -116 -31 -144 38
-102 249 19 99 21 137 19 375 -4 369 -6 382 -61 441 l-24 27 3 353 c3 339 4
356 26 410 29 73 74 114 110 101 6 -2 13 -9 13 -16z m575 -262 c45 -21 88 -74
104 -127 7 -23 14 -91 15 -152 2 -144 -7 -172 -124 -370 l-41 -70 1 -478 c1
-263 -1 -480 -4 -483 -11 -12 -88 -10 -105 2 -16 11 -17 43 -17 475 1 275 -3
476 -9 494 -5 17 -31 62 -57 101 -71 106 -92 175 -93 309 0 126 16 189 65 248
59 72 173 94 265 51z m-1351 -154 c4 -30 8 -66 10 -80 2 -14 7 -54 10 -90 4
-36 9 -74 11 -85 3 -11 6 -40 9 -65 6 -54 28 -82 43 -54 5 11 13 46 16 79 4
33 11 94 16 135 6 41 12 93 15 115 19 165 23 186 29 193 3 3 6 -8 7 -24 0 -16
2 -36 3 -44 2 -8 6 -42 10 -75 4 -33 9 -71 11 -85 2 -14 6 -50 9 -80 4 -30 9
-73 12 -95 4 -22 7 -52 9 -68 1 -15 8 -34 15 -42 13 -16 40 -21 40 -7 0 4 4
34 10 67 5 33 12 83 15 110 3 28 7 61 10 75 2 14 7 50 10 80 19 177 34 248 36
164 0 -21 2 -52 5 -69 2 -16 6 -46 8 -65 2 -19 6 -55 10 -80 4 -25 9 -61 12
-80 2 -19 7 -93 10 -165 l6 -130 -56 -80 c-95 -137 -89 -98 -90 -548 l-2 -399
-24 -18 c-13 -10 -42 -20 -63 -22 -32 -3 -45 1 -68 23 l-28 26 -1 392 c0 370
-1 394 -20 430 -10 22 -25 45 -32 52 -8 8 -34 44 -60 80 l-46 67 4 103 c2 57
6 120 9 139 7 53 12 89 19 155 4 33 9 71 11 85 2 14 7 52 11 85 l8 60 7 -55
c4 -30 11 -80 14 -110z"/>
</g>
</svg>
