<?xml version="1.0" encoding="UTF-8"?>
<!DOCTYPE svg PUBLIC "-//W3C//DTD SVG 1.1//EN" "http://www.w3.org/Graphics/SVG/1.1/DTD/svg11.dtd">
<svg xmlns="http://www.w3.org/2000/svg" version="1.1" width="150px" height="28px" style="shape-rendering:geometricPrecision; text-rendering:geometricPrecision; image-rendering:optimizeQuality; fill-rule:evenodd; clip-rule:evenodd" xmlns:xlink="http://www.w3.org/1999/xlink">
<g><path style="opacity:0.787" fill="#fefefe" d="M 13.5,-0.5 C 20.1667,-0.5 26.8333,-0.5 33.5,-0.5C 35.1436,0.316435 36.3103,1.64977 37,3.5C 37.6667,10.1667 37.6667,16.8333 37,23.5C 35.6244,24.7051 34.4577,26.0384 33.5,27.5C 26.8333,27.5 20.1667,27.5 13.5,27.5C 12.2689,26.2823 11.1022,24.949 10,23.5C 9.33333,16.8333 9.33333,10.1667 10,3.5C 10.6897,1.64977 11.8564,0.316435 13.5,-0.5 Z M 32.5,4.5 C 33.1174,4.61071 33.6174,4.94404 34,5.5C 38.5,22.3333 32.3333,28.5 15.5,24C 14.6667,23.1667 13.8333,22.3333 13,21.5C 8.5,4.66667 14.6667,-1.5 31.5,3C 32.056,3.38258 32.3893,3.88258 32.5,4.5 Z M 22.5,8.5 C 29.8661,11.2119 30.1994,14.5452 23.5,18.5C 17.3565,15.5953 17.0231,12.262 22.5,8.5 Z"/></g>
<g><path style="opacity:0.779" fill="#fefefe" d="M 111.5,27.5 C 102.833,27.5 94.1667,27.5 85.5,27.5C 85.5,18.8333 85.5,10.1667 85.5,1.5C 94.1667,1.5 102.833,1.5 111.5,1.5C 111.5,10.1667 111.5,18.8333 111.5,27.5 Z M 88.5,4.5 C 95.1667,4.5 101.833,4.5 108.5,4.5C 108.5,11.1667 108.5,17.8333 108.5,24.5C 106.833,24.5 105.167,24.5 103.5,24.5C 103.5,22.1667 103.5,19.8333 103.5,17.5C 104.5,17.5 105.5,17.5 106.5,17.5C 106.5,16.1667 106.5,14.8333 106.5,13.5C 105.5,13.5 104.5,13.5 103.5,13.5C 103.5,12.5 103.5,11.5 103.5,10.5C 104.833,10.5 106.167,10.5 107.5,10.5C 107.5,8.83333 107.5,7.16667 107.5,5.5C 101.373,4.62652 98.3728,7.29319 98.5,13.5C 97.5,13.5 96.5,13.5 95.5,13.5C 95.5,14.8333 95.5,16.1667 95.5,17.5C 96.5,17.5 97.5,17.5 98.5,17.5C 98.5,19.8333 98.5,22.1667 98.5,24.5C 95.1667,24.5 91.8333,24.5 88.5,24.5C 88.5,17.8333 88.5,11.1667 88.5,4.5 Z"/></g>
<g><path style="opacity:0.454" fill="#fdfdfd" d="M 32.5,4.5 C 32.5,5.5 32.5,6.5 32.5,7.5C 31.5,7.5 30.5,7.5 29.5,7.5C 29.5,6.5 29.5,5.5 29.5,4.5C 30.5,4.5 31.5,4.5 32.5,4.5 Z"/></g>
<g><path style="opacity:0.72" fill="#fefefe" d="M 29.5,7.5 C 33.4164,18.4151 29.7497,22.5818 18.5,20C 15.2306,16.5469 14.7306,12.7135 17,8.5C 20.9028,4.93321 25.0695,4.59988 29.5,7.5 Z M 22.5,8.5 C 17.0231,12.262 17.3565,15.5953 23.5,18.5C 30.1994,14.5452 29.8661,11.2119 22.5,8.5 Z"/></g>
<g><path style="opacity:0.872" fill="#fefefe" d="M 62.5,27.5 C 58.5,27.5 54.5,27.5 50.5,27.5C 49.5707,26.6851 48.5707,25.8518 47.5,25C 49.9519,24.7105 52.2852,24.0438 54.5,23C 48.7165,18.9208 47.0498,13.4208 49.5,6.5C 52.545,9.5158 56.2117,11.1825 60.5,11.5C 60.393,9.09685 61.393,7.26351 63.5,6C 67.6147,5.84226 71.6147,5.84226 75.5,6C 73.9627,10.926 72.1294,16.0927 70,21.5C 67.8859,24.1208 65.3859,26.1208 62.5,27.5 Z"/></g>
<g><path style="opacity:0.699" fill="#fefefe" d="M 149.5,8.5 C 149.5,13.8333 149.5,19.1667 149.5,24.5C 148.5,25.5 147.5,26.5 146.5,27.5C 139.167,27.5 131.833,27.5 124.5,27.5C 123.531,26.6906 122.698,25.6906 122,24.5C 121.333,19.1667 121.333,13.8333 122,8.5C 122.308,7.69194 122.808,7.02527 123.5,6.5C 131.117,5.36656 138.784,5.19989 146.5,6C 147.691,6.69794 148.691,7.53128 149.5,8.5 Z M 126.5,8.5 C 132.893,8.20711 139.227,8.54044 145.5,9.5C 146.833,14.1667 146.833,18.8333 145.5,23.5C 138.833,24.8333 132.167,24.8333 125.5,23.5C 123.977,18.2325 124.31,13.2325 126.5,8.5 Z M 134.5,15.5 C 136.337,15.6395 136.67,16.3061 135.5,17.5C 134.702,17.0431 134.369,16.3764 134.5,15.5 Z"/></g>
<g><path style="opacity:0.624" fill="#fefefe" d="M 131.5,9.5 C 135.773,11.3053 139.773,13.6386 143.5,16.5C 140.003,19.083 136.336,21.4164 132.5,23.5C 131.507,18.8804 131.173,14.2137 131.5,9.5 Z M 134.5,15.5 C 134.369,16.3764 134.702,17.0431 135.5,17.5C 136.67,16.3061 136.337,15.6395 134.5,15.5 Z"/></g>
</svg>
