<svg width="139" height="138" fill="none" xmlns="http://www.w3.org/2000/svg"><path d="M52 0C37.154 0 23.946 8.268 14.803 20.844 5.661 33.424.25 50.399.25 69c0 18.596 5.41 35.581 14.553 48.156C23.946 129.737 37.153 138 52 138c47.323 0 72.548-27.065 78.706-55.522 4.324-3.128 7.544-7.751 7.544-13.478 0-5.727-3.214-10.35-7.55-13.478C124.22 26.347 94.05 0 52 0zm0 11.5c10.557 0 20.355 5.842 27.853 16.175C87.351 37.996 92.25 52.67 92.25 69c0 16.33-4.899 30.993-12.397 41.331C72.349 120.652 62.557 126.5 52 126.5c-10.557 0-20.355-5.842-27.853-16.175C16.649 100.004 11.75 85.33 11.75 69c0-16.33 4.899-30.992 12.397-41.331C31.651 17.342 41.443 11.5 52 11.5zm36.656 8.803c17.48 9.258 28.704 24.484 31.447 39.353l.535 2.875 2.702 1.26c1.995.92 3.41 2.852 3.41 5.209 0 2.358-1.414 4.29-3.415 5.21l-2.692 1.259-.54 2.875c-3.059 16.646-13.098 32.97-33.246 41.687.787-.943 1.598-1.863 2.34-2.875C98.339 104.575 103.75 87.601 103.75 69c0-18.596-5.41-35.581-14.553-48.156-.161-.202-.386-.34-.54-.54zM52 23c-4.111 0-7.975 1.483-11.5 3.956l11.678 27.485L64.04 27.128C60.395 24.466 56.266 23 52 23zM31.875 36.116c-4.514 7.072-7.613 16.56-8.447 27.134h19.947l-11.5-27.134zm40.612.54L60.797 63.25h19.769c-.805-10.333-3.732-19.562-8.09-26.594h.011zM23.423 74.75c.805 10.333 3.731 19.561 8.084 26.594L43.202 74.75h-19.78zm37.196 0l11.5 27.134c4.514-7.072 7.613-16.56 8.447-27.134H60.619zm-8.803 8.803l-11.862 27.313c3.64 2.674 7.774 4.134 12.04 4.134 4.111 0 7.975-1.483 11.5-3.956l-11.678-27.49z" fill="#000"/></svg>