<svg width="145" height="138" fill="none" xmlns="http://www.w3.org/2000/svg"><path d="M103.531.147l-6.468 9.522s3.524 2.743 5.209 6.653c1.461 3.433 2.519 7.457-3.053 14.19l-5.031 5.038c-16.934-14.421-34.144-15.1-34.144-15.1h-3.231l-1.8 2.875S40.35 48.257 26.263 74C19.219 86.868 12.25 99.967 7.409 110.3c-2.433 5.163-4.342 9.66-5.578 13.294-.604 1.817-1.035 3.346-1.253 5.031-.23 1.685-.857 3.996 1.972 6.831 2.835 2.829 5.146 2.196 6.83 1.972 1.686-.224 3.215-.65 5.032-1.253 3.64-1.237 8.13-3.146 13.3-5.578C38.027 125.75 51.126 118.792 64 111.743c25.72-14.11 50.675-28.75 50.675-28.75l2.875-1.8v-3.415s-.765-17.003-15.094-33.96l1.972-2.156c.495-.495.943-.834 1.438-1.26l1.437-1.258c6.785-5.21 13.208-5.003 18.872-3.588a33.22 33.22 0 0110.959 5.025l7.188-8.982s-6.383-4.916-15.456-7.187a36.327 36.327 0 00-6.107-.897l11.679-11.684-8.269-8.263-12.035 12.04a21.359 21.359 0 00-1.259-3.955c-3.237-7.544-9.344-11.5-9.344-11.5V.147zM62.919 32.669c3.778.362 14.582 1.932 27.497 14.916 12.937 13.029 14.53 23.747 14.909 27.49-.943.564-5.859 3.53-9.7 5.75a66.949 66.949 0 00-7.55-12.753l-9.16 7.009c4.043 5.388 5.705 9.096 6.648 11.5a1993.552 1993.552 0 01-27.135 15.094c-.557.287-1.052.603-1.615.897-1.058-3.145-2.783-6.94-5.929-11.322l-9.343 6.647c2.829 3.956 4.22 7.21 4.853 9.344.109.362.109.448.172.718-8.596 4.606-16.905 9.028-23.713 12.219-3.548 1.668-6.066 2.588-8.625 3.594 1.012-2.559 1.932-5.077 3.594-8.625 4.646-9.902 11.523-22.816 18.503-35.575 3.37-6.153 5.934-10.758 8.988-16.175 1.84 1.616 4.22 3.795 6.83 7.188l8.982-7.01a59.366 59.366 0 00-10.062-10.419C57.083 42.6 61.89 34.446 62.925 32.67h-.006z" fill="#000"/></svg>