<svg width="28" height="28" fill="none" xmlns="http://www.w3.org/2000/svg"><path d="M8.233 0C3.713 0 0 3.709 0 8.233v11.534C0 24.287 3.709 28 8.233 28h11.534C24.287 28 28 24.291 28 19.767V8.235C28 3.714 24.291 0 19.767 0H8.233zm0 2.545h11.534a5.68 5.68 0 015.688 5.688v11.534a5.68 5.68 0 01-5.688 5.688H8.235a5.68 5.68 0 01-5.69-5.688s.002-10.785 0-11.532a5.68 5.68 0 015.688-5.69zM21.517 5.33a1.148 1.148 0 00-1.153 1.153c0 .642.511 1.153 1.153 1.153a1.148 1.148 0 001.154-1.153 1.147 1.147 0 00-1.154-1.153zM14 6.364C9.8 6.364 6.364 9.8 6.364 14S9.8 21.636 14 21.636 21.636 18.2 21.636 14 18.2 6.364 14 6.364zm0 2.545c2.83 0 5.09 2.262 5.09 5.091 0 2.83-2.26 5.09-5.09 5.09A5.068 5.068 0 018.91 14c0-2.83 2.26-5.09 5.09-5.09z" fill="#fff"/></svg>