<svg width="495" height="430" fill="none" xmlns="http://www.w3.org/2000/svg"><path d="M166.871 150.717c-14.792-19.974-34.041-62.415-21.68-89.695C168.121 10.417 249.439-9.531 276.63 6.235c-6.428.548-26.68 8.359-47.805 21.634-19.202 12.067-27.136 43.845-2.375 23.129 8.668-7.253 33.678-26.235 50.166-30.111 33.391-7.85 65.587-2.451 86.983 17.858-14.965-.462-43.669-.196-74.56 10.894-38.613 13.863-52.92 31.809-52.112 33.682.807 1.874-.312-.31 35.082-14.637 56.425-22.84 125.279-22.501 163.789 33.383-37.982-25.311-71.339-19.511-117.202-12.81-22.504 3.288-62.767 19.239-58.107 23.71 4.659 4.472 10.213 1.338 28.097-3.222 17.883-4.559 54.736-6.92 77.413-5.03 49.961 4.165 101.014 3.635 125.637 87.963-41.832-42.019-100.924-46.786-151.845-48.757-10.789-.417-77.663 3.345-74.779 20.596 1.732 10.36 32.521 3.147 41.185 2.56 8.665-.587 48.759-4.111 60.213-4.234 11.453-.122 36.126-.943 66.26 12.913 30.135 13.856 44.972 32.268 49.469 39.03 4.496 6.763 12.877 28.883 12.301 45.236-.46 13.082-.232 26.942-.06 32.236-6.556-10.318-24.509-33.621-52.084-50.616-34.468-21.244-62.157-28.474-75.361-30.745-13.204-2.27-33.93-2.745-34.325 5.016-.396 7.76 20.537 18.471 30.869 23.089 10.332 4.618 34.665 14.909 43.65 19.738 8.984 4.829 33.907 22.205 49.852 37.177 15.945 14.973 19.431 28.068 21.25 49.313 1.456 16.996-12.158 53.532-16.788 60.032 3.168-10.004-.421-25.242-13.023-40.548M166.871 150.717l-13.42-1.436m13.42 1.436c1.757-9.828.547-44.671 6.046-62.886 6.872-22.769 15.728-34.549 26.205-46.283m-32.251 109.169c4.947-10.215 18.872-34.974 34.998-52.29 20.159-21.645 44.573-41.421 58.148-50.973m-93.146 103.263c3.201.869 7.464 2.284 12.639 4.299m-12.639-4.299c-48.708 7.946-111.093 74.93-99.58 124.679m381.129 89.317c-45.723-17.973-14.73 16.388-35.021 14.881-16.327-1.213-33.754-6.332-62.61-39.251-17.545-20.015-40.145-80.418-48.695-65.743-9.79 16.802 2.782 53.735 26.188 85.164 28.816 38.694 70.184 45.613 73.821 47.377-5.691-.077-46.026 20.012-66.639 16.526-15.431-2.611-42.239-9.061-64.477-44.646-22.238-35.586-25.972-83.342-26.88-96.464-.726-10.498 3.052-39.757 5.032-53.075-.342-6.579-3.35-16.92-12.649-5.656-11.624 14.08-6.947 77.226-.78 106.224 7.039 33.094 31.671 77.435 60.086 99.412-10.684-1.875-43.281-3.507-63.822-12.723-25.676-11.52-42.039-22.899-51.763-51.473-9.725-28.575-12.389-52.798-11.648-74.776.741-21.978 7.927-49.694 11.005-58.24 2.462-6.837 11.401-24.306 14.177-32.66-21.621 5.863-31.49 35.681-35.552 55.479-3.15 15.355-7.715 39.461-7.44 52.115.508 23.353 3.202 80.165 33.64 91.652-27.345-5.673-61.591-35.004-73.614-58.714-13.404-26.433-9.948-57.282-6.95-68.015 2.998-10.733 17.466-48.252 25.639-60.659 6.539-9.927 11.771-19.635 13.57-23.249 1.794-3.179 3.436-8.515-4.35-4.419-7.785 4.095-18.309 17.701-22.598 23.992-3.345 5.699-10.648 18.546-13.099 24.341-3.063 7.244-12.188 32.464-13.568 41.944-1.38 9.48-2.925 24.585-.71 36.403 1.773 9.455 6.362 19.658 8.435 23.578-22.11-5.625-54.997-35.447-58.176-75.225-3.06-38.289 23.41-63.116 47.382-85.867 3.038-2.296 9.018-10.782-4.059-8.553-31.961 5.449-56.32 46.545-61.83 75.265-6.227-4.104-18.822-31.254-19.48-48.001-.953-24.257 11.027-46.007 31.777-57.766M448.42 364.713c-12.103-9.841-49.407-40.411-59.739-49.435-11.05-9.651-40.66-24.626-70.998-69.586m-164.232-96.411c-10.639-9.67-22.007-17.359-31.302-22.239-9.294-4.88-28.09-8.444-50.688-6.48-12.454 1.082-27.153 6.786-38.7 13.329m120.69 15.39c-19.017-.629-109.725-6.12-126.39 28.009m126.39-28.009c-23.459-7.153-74.343-21.388-90.214-21.103-15.87.285-26.93 3.928-30.475 5.713m161.926 27.641c-8.763 7.591-28.501 27.651-37.353 47.163-11.064 24.39-27.839 66.235-30.822 96.028-2.386 23.835 1.468 39.229 3.692 43.947m64.483-187.138c-5.664-2.633-10.754-4.793-15.178-6.516m15.178 6.516a349.802 349.802 0 0113.402 6.595m19.006 10.506c-5.491 5.513-17.407 27.123-21.141 69.458-4.668 52.918-.817 79.211 5.729 105.083 5.237 20.698 12.092 34.959 14.865 39.503m.547-214.044a414.025 414.025 0 00-19.006-10.506m19.006 10.506a475.45 475.45 0 0128.114 17.876m19.182 13.807a533.58 533.58 0 0115.647 12.278 1411.361 1411.361 0 0127.644 23.098m-43.291-35.376c-2.621 9.938-3.211 37.51.982 74.014 5.349 46.563 9.545 53.484 22.206 85.373 7.927 19.966 21.28 30.087 27.838 33.383m-51.026-192.77a513.596 513.596 0 00-19.182-13.807m-75.7-41.493c13.878-14.412 46.947-45.526 68.199-54.684 26.566-11.447 40.894-18.918 62.416-23.379M208.09 168.127c4.51-7.065 23.376-23.18 62.76-31.118 49.229-9.921 75.047-11.421 117.302-8.156 33.803 2.612 50.154 12.695 54.103 17.411M255.21 196.509c11.598-2.346 46.031-7.398 90.972-8.845 44.942-1.448 93.109 24.482 111.574 37.628m-140.073 20.4c23.353 7.576 85.1 40.925 100.41 54.024 15.31 13.099 29.81 29.792 35.146 36.502" stroke="#000" stroke-linecap="round" stroke-linejoin="round"/></svg>