<svg width="307" height="115" fill="none" xmlns="http://www.w3.org/2000/svg"><path fill-rule="evenodd" clip-rule="evenodd" d="M57 2h188v25h2V0H55v27h2V2zm0 85h-2v28h192V87h-2v26H57V87z" fill="#fff"/><path d="M14.76 54.34v19.285l5.862.62v1.653H0v-1.653l5.863-.62V32.161L0 31.403v-1.584h34.37v9.85h-2.156l-2.56-7.302-14.895-.206V51.86h13.142l2.09-5.097h1.954v12.811h-2.022L27.9 54.339H14.759zm54.344 17.356c-3.145 3.306-7.436 4.96-12.872 4.96-5.437 0-9.727-1.654-12.872-4.96-3.145-3.306-4.718-7.507-4.718-12.604 0-5.097 1.573-9.299 4.718-12.605 3.145-3.306 7.435-4.959 12.872-4.959 5.436 0 9.727 1.653 12.872 4.96 3.145 3.305 4.718 7.507 4.718 12.604 0 5.097-1.573 9.298-4.718 12.604zM48.01 59.092c0 10.607 2.74 15.91 8.222 15.91 5.481 0 8.222-5.303 8.222-15.91 0-5.189-.607-9.115-1.82-11.778-1.213-2.71-3.347-4.064-6.402-4.064s-5.19 1.355-6.402 4.064c-1.214 2.663-1.82 6.589-1.82 11.778zm61.504 12.604c-3.145 3.306-7.436 4.96-12.872 4.96-5.437 0-9.727-1.654-12.873-4.96-3.145-3.306-4.717-7.507-4.717-12.604 0-5.097 1.572-9.299 4.717-12.605 3.145-3.306 7.436-4.959 12.873-4.959 5.436 0 9.727 1.653 12.872 4.96 3.145 3.305 4.717 7.507 4.717 12.604 0 5.097-1.572 9.298-4.717 12.604zM88.42 59.092c0 10.607 2.74 15.91 8.222 15.91 5.481 0 8.222-5.303 8.222-15.91 0-5.189-.607-9.115-1.82-11.778-1.213-2.71-3.347-4.064-6.402-4.064-3.056 0-5.19 1.355-6.403 4.064-1.213 2.663-1.82 6.589-1.82 11.778zm45.329 17.839c-4.089 0-7.481-1.4-10.176-4.201-2.696-2.801-4.044-7.026-4.044-12.674s1.595-10.102 4.785-13.362c3.235-3.26 7.526-4.89 12.872-4.89 2.786 0 5.414.665 7.885 1.997V26.306l-5.796-.413V24.17L153.697 23v51.314l5.729.275.067 1.585-14.085.826.135-6.199h-.405c-1.123 1.929-2.718 3.444-4.784 4.546a14.316 14.316 0 01-6.605 1.584zm11.255-11.64V46.35c-1.797-1.7-4.089-2.549-6.874-2.549-3.55 0-5.976 1.676-7.279 5.028-1.078 2.939-1.617 6.681-1.617 11.227 0 9.78 2.134 14.671 6.402 14.671 2.516 0 4.695-1.102 6.537-3.306 1.887-2.204 2.831-4.248 2.831-6.13zm17.779-25.278V29.888l39.223-.138v2.135l-29.114 40.5 24.329.138 2.359-7.577h2.224v10.056l-39.965.138v-1.928l29.384-40.707-23.857-.138-2.359 7.646h-2.224zm66.72 11.847c0-5.602-1.909-8.403-5.728-8.403-3.999 0-6.425 3.581-7.279 10.745h12.873c.089-.919.134-1.7.134-2.342zm-6.335 24.796c-4.807 0-8.716-1.608-11.726-4.822-2.965-3.214-4.448-7.462-4.448-12.742 0-5.28 1.55-9.528 4.65-12.742 3.145-3.215 7.121-4.822 11.929-4.822 4.807 0 8.401 1.056 10.783 3.168 2.381 2.067 3.572 4.96 3.572 8.679 0 1.056-.09 2.158-.27 3.306h-21.364v2.41c0 5.144.629 9.047 1.887 11.71 1.258 2.617 3.145 3.926 5.661 3.926 2.561 0 4.875-.528 6.942-1.584 2.112-1.102 3.751-2.64 4.92-4.615.988.322 1.482.804 1.482 1.447 0 1.148-1.056 2.48-3.167 3.994-1.034.735-2.516 1.378-4.448 1.929-1.887.505-4.021.758-6.403.758zm32.021-26.243c.764-2.48 2.157-4.592 4.179-6.336 2.066-1.745 3.931-2.618 5.593-2.618 1.708 0 2.853.436 3.437 1.309.584.826.876 1.515.876 2.066 0 1.883-.674 3.237-2.021 4.064-.899-.735-2.247-1.102-4.044-1.102-1.752 0-3.504.574-5.257 1.722-1.752 1.102-2.628 2.319-2.628 3.65V73.9l6.065.414v1.584h-18.802v-1.584l4.448-.345V44.56l-5.459-.276V42.7l13.748-.758-.404 8.472h.269zm47.093 21.283c-3.145 3.306-7.435 4.96-12.872 4.96-5.436 0-9.727-1.654-12.872-4.96-3.145-3.306-4.717-7.507-4.717-12.604 0-5.097 1.572-9.299 4.717-12.605 3.145-3.306 7.436-4.959 12.872-4.959 5.437 0 9.727 1.653 12.872 4.96 3.145 3.305 4.718 7.507 4.718 12.604 0 5.097-1.573 9.298-4.718 12.604zm-21.094-12.604c0 10.607 2.741 15.91 8.222 15.91 5.482 0 8.222-5.303 8.222-15.91 0-5.189-.606-9.115-1.819-11.778-1.213-2.71-3.348-4.064-6.403-4.064-3.055 0-5.189 1.355-6.402 4.064-1.213 2.663-1.82 6.589-1.82 11.778z" fill="#fff"/></svg>