<svg width="468" height="548" fill="none" xmlns="http://www.w3.org/2000/svg"><path d="M684.758 24.448S542.303 53.519 375.375 160.753c-166.928 107.234-208.73 190.854-208.73 190.854M537.427 66.066s-18.16-14.896-32.717-20.994c-14.557-6.098-44.118-16.167-51.504-19.68-7.375-3.51-34.849-29.443-37.7-23.048-2.851 6.395 11.888 26.673 22.582 30.968 10.693 4.294 18.134 5.615 31.876 11.958 13.741 6.344 35.292 22.067 39.257 22.978 6.478 1.491 9.562-5.247 2.745-7.749-6.817-2.501-20.033 1.79-28.152 1.916-8.12.127-95.521-9.94-106.474-12.968-10.953-3.027-37.635 3.037-2.934 14.334 34.702 11.298 87.804 6.855 117.41 12.285l29.603 5.442m28.533-12.39c-.141.406-58.732 39.945-89.642 81.681-30.91 41.737 7.512 6.639 14.209.263 6.708-6.374 26.214-22.531 43.978-37.771 10.182-8.728 20.37-14.996 27.946-19.49m0 0c3.088-10.67 2.698-16.755 8.899-17.31 7.204-.635 6.492 5.96 2.603 9.89-1.665 1.68-5.864 4.062-11.502 7.42zm0 0c-2.247 7.746-4.561 17.072-6.966 25.764-2.189 7.92-4.454 15.304-6.794 20.504-8.467 18.766-50.918 67.939-59.003 81.043-8.077 13.118-41.926 61.681-37.097 66.356 4.829 4.676 16.122-14.751 20.541-21.214 3.731-5.482 64.38-88.448 91.15-134.206m0 0c4.891-8.371 8.653-15.48 10.723-20.665 8.545-21.352 12.244-40.448 13.806-51.479m-24.529 72.144c-2.26 6.853-5.893 16.332-11.74 28.808-14.374 30.631-57.443 88.494-61.226 93.778-3.786 5.297-20.567 40.209 8.048 5.889 28.618-34.333 52.933-75.861 59.106-87.211 6.186-11.36 14.26-24.466 21.254-51.101 6.99-26.622 3.09-31.078 3.09-31.078m-23.207 12.997s-74.491 75.243-84.832 97.552c-10.349 22.295-19.096 40.556 9.243 5.719 28.338-34.837 46.367-58.85 52.246-64.968 5.879-6.118 19.23-22.853 19.23-22.853m-41.912-42.472c-15.63 7.985-54.559 27.656-70.771 33.949-20.532 7.97-49.861 21.3-65.055 23.927-15.195 2.627-49.694 7.282-10.913-6.964 38.773-14.261 74.891-28.697 87.569-34.098 4.458-1.896 9.345-5.206 14.02-8.392m0 0c8.598-5.86 16.423-11.292 19.397-6.67 1.575 2.445-6.951 4.669-19.397 6.67zm0 0c-23.791 3.837-61.92 6.85-71.221 9.01-14.169 3.281-58.618 11.337-73.998 13.003-15.381 1.667-37.522 4.352-37.522 4.352s-38.903-2.099-.167-12.383c38.746-10.28 140.71-22.415 140.71-22.415l21.472-5.142.014-.01m-8.264 125.083c-8.822 20.384-24.366 57.355-39.301 97.924-22.581 61.377-16.859 50.359-30.817 84.622-13.944 34.254-10.551 6.342-7.546-2.674 3.002-9.003 10.252-36.893 16.248-54.914 3.241-9.718 13.618-36.284 24.574-64.095m36.842-60.863c.508-1.859 1.051-3.83 1.624-5.954 11.116-41.113 15.171-60.922 15.171-60.922s-16.761 8.408-46.631 52.596c-29.861 44.204-37.145 62.798-41.33 71.973-4.197 9.173-13.71 46.254 7.791 7.143 21.5-39.097 39.878-65.779 48.524-76.012 2.816-3.334 6.656-7.874 10.366-12.631m4.485 23.807c-9.427 34.219-9.284 27.064-24.99 77.005-16.561 52.648 5.545 10.585 9.192 2.172 3.657-8.41 19.224-52.457 27.66-88.012 6.89-29.078 12.792-60.808 14.71-71.422m-63.414 141.12l.005-.025m-.005.025c-6.487 7.901-16.004 20.52-23.911 35.02-13.418 24.599-22.556 51.285-43.453 87.442-20.897 36.158-10.398 3.721-7.116-4.777 3.281-8.499 35.355-80.454 56.423-111.27 12.214-17.867 22.931-29.551 29.79-36.208m-11.733 29.793s.016-.023.005-.025m0 0c3.938-10.005 7.956-20.176 11.728-29.768m0 0l.003-.013c5.216-13.25 9.989-25.409 13.52-34.619a367.89 367.89 0 007.101-20.245m0 0c6.108-19.311 6.647-26.531 10.868-23.474 3.879 2.804-3.202 13.607-10.868 23.474zM387.937 152.8c-9.263.84-25.665 2.398-42.636 4.353l-.011-.003m0 0c-14.047 1.609-28.463 3.49-39.525 5.473l-.011-.003m39.536-5.47c-15.492-4.193-49.083-12.186-90.908-15.707-58.001-4.873-89.048 18.721-93.874 21.566-4.824 2.833-14.874 12.39 3.657 6.605 18.542-5.782 30.662-14.119 71.158-14.194 29.301-.05 57.218 4.622 70.431 7.2m0 0c-3.19.575-6.094 1.164-8.637 1.746-27.508 6.307-115.664 37.609-130.523 44.261-14.859 6.653-48.968 33.934 4.49 13.87 53.468-20.061 81.188-29.268 90.539-33.542 2.185-.985 7.783-2.333 15.049-3.897m0 0c11.442-2.478 26.998-5.511 39.7-8.594m-39.7 8.594c-23.131 14.662-68.555 43.123-98.604 59.858-41.786 23.261-24.21 27.867 7.948 12.043 23.839-11.719 93.887-59.472 130.356-80.495m0 0c13.835-3.347 24.308-6.758 22.524-9.598-1.157-1.828-9.796 2.256-22.524 9.598zm25.243 6.803c-1.756 11.583-5.375 32.665-10.527 48.773-7.495 23.421-34.758 120.828-46.894 149.982-12.135 29.153-18.989 38.163-8.826-2.087 10.162-40.249 30.313-99.104 34.946-116.133 4.641-17.013 11.736-38.761 11.736-38.761s-75.641 123.07-79.857 130.471c-4.217 7.401-39.369 46.806-4.691-12.15 34.669-58.972 55.048-92.594 70.759-118.484a650.438 650.438 0 0017.225-30.223m-92.325 76.316c-3.413 27.043-12.969 99.404-21.961 134.217-11.17 43.306-26.072 89.716-27.837 94.601-1.776 4.882-22.5 40.19-7.407-5.285 15.093-45.475 26.888-74.948 35.706-124.55 5.812-32.761 9.864-68.821 11.949-89.547m-8.602 8.889c-8.294-2.931-29.659-9.083-58.839-7.131-37.912 2.519-88.6 10.868-117.13 16.495-28.53 5.627-32.127 17.599 6.372 10.342 38.496-7.244 79.064-11.355 96.82-13.35 17.753-1.982 38.116-1.594 47.288-1.193 5.908.253 13.28 1.969 17.78 3.153-3.931 17.34-41.715 153.344-58.949 188.6-17.245 35.254-12.501 12.073-9.861 2.971 2.626-9.092 13.901-45.318 27.806-83.115 13.907-37.81 24.906-80.28 25.49-85.004.29-2.324-.115-3.177-1.99-2.969-1.916.185-5.37 1.481-11.209 3.383-4.821 1.571-12.628 4.19-21.887 7.45m0 0c-12.857 4.521-28.494 10.272-42.712 16.173-24.441 10.128-55.166 22.743-90.586 48.838-35.42 26.094-21.57 5.504-5.61-8.395 15.959-13.9 34.228-25.938 67.378-40.943 33.15-15.005 77.195-30.491 92.179-34.018 7.493-1.764 15.384-2.756 21.436-3.318M156.7 328.928c-9.91 9.895-26.4 25.875-38.978 35.604-19.247 14.89-49.067 34.362-69.283 52.119-20.205 17.759-39.634 46.743-42.171 49.678-2.526 2.937-13.275 29.11 7.877 6.725 21.165-22.396 19.243-22.411 42.878-45.538 16.199-15.863 53.936-45.237 84.505-67.402m34.766-23.978c-8.229 5.137-20.738 13.794-34.766 23.978m0 0c-10.22 11.748-22.946 28.033-33.604 46.627-21.74 37.951-42.538 79.739-59.572 119.627-17.034 39.887 7.221 9.931 11.039 2.609 3.807-7.325 16.86-39.038 41.182-86.318 13.548-26.309 34.547-48.743 48.824-64.395m0 0c3.352-13.545 6.225-27.415 14.18-22.997 4.301 2.385-2.817 10.535-14.18 22.997zm0 0c-.736 2.975-1.492 5.932-2.331 8.67-4.664 15.254-12.952 40.679-22.317 61-9.366 20.322-20.949 39.242-37.425 68.924-16.487 29.679.353 13.344 5.494 7.038 5.148-6.29 16.715-19.461 39.611-71.05 22.896-51.59 38.995-100.109 38.995-100.109" stroke="#233000" stroke-miterlimit="10"/></svg>