<svg width="28" height="22" fill="none" xmlns="http://www.w3.org/2000/svg"><path d="M28 2.61a11.76 11.76 0 01-3.3.871 5.608 5.608 0 002.525-3.07 11.819 11.819 0 01-3.646 1.348A5.795 5.795 0 0020.645.135a5.931 5.931 0 00-3.372.254 5.714 5.714 0 00-2.64 2.043 5.422 5.422 0 00-.993 3.124c0 .437.05.86.151 1.264a16.727 16.727 0 01-6.56-1.68 16.2 16.2 0 01-5.283-4.121 5.368 5.368 0 00-.778 2.793c0 1.925 1.012 3.625 2.556 4.621a5.862 5.862 0 01-2.601-.697v.071a5.435 5.435 0 001.298 3.518 5.78 5.78 0 003.31 1.927 5.912 5.912 0 01-2.595.096 5.572 5.572 0 002.043 2.76 5.884 5.884 0 003.322 1.1 11.676 11.676 0 01-4.015 1.965 11.904 11.904 0 01-4.488.33A16.656 16.656 0 008.805 22c10.567 0 16.347-8.462 16.347-15.8 0-.238-.01-.481-.018-.72A11.556 11.556 0 0028 2.61z" fill="#fff"/></svg>