<svg width="28" height="22" fill="none" xmlns="http://www.w3.org/2000/svg"><path d="M14 0C9.944 0 6.36.429 4.173.757A4.308 4.308 0 00.572 4.263C.29 5.83 0 8.126 0 11s.29 5.17.572 6.738a4.305 4.305 0 003.601 3.506C6.37 21.57 9.966 22 14 22s7.631-.429 9.827-.757a4.303 4.303 0 003.601-3.505C27.71 16.165 28 13.866 28 11c0-2.866-.287-5.165-.572-6.737A4.31 4.31 0 0023.827.756C21.64.43 18.055 0 14 0zm0 2.2c3.913 0 7.408.408 9.524.722a2.1 2.1 0 011.169.582c.32.315.535.725.615 1.171.26 1.452.538 3.605.538 6.325 0 2.716-.278 4.873-.538 6.325a2.167 2.167 0 01-.613 1.172 2.09 2.09 0 01-1.17.581c-2.127.314-5.638.722-9.525.722-3.888 0-7.404-.408-9.524-.722a2.096 2.096 0 01-1.17-.582 2.173 2.173 0 01-.614-1.171c-.26-1.452-.538-3.6-.538-6.325 0-2.728.278-4.873.538-6.325.08-.447.294-.857.614-1.171.32-.315.73-.519 1.17-.582C6.588 2.608 10.088 2.2 14 2.2zm-3.23 2.51v12.582l1.615-.928 7.538-4.4L21.54 11l-1.616-.963-7.538-4.4-1.616-.928zm2.153 3.78L17.197 11l-4.274 2.51V8.49z" fill="#fff"/></svg>